<svg xmlns="http://www.w3.org/2000/svg" version="1.1" xmlns:xlink="http://www.w3.org/1999/xlink" xmlns:svgjs="http://svgjs.dev/svgjs" width="1440" height="560" preserveAspectRatio="none" viewBox="0 0 1440 560"><g mask="url(&quot;#SvgjsMask1007&quot;)" fill="none"><path d="M761.32 588.2C910.25 542.85 947.63 124.76 1169.16 117.63 1390.69 110.5 1470.5 239.5 1577 240.83" stroke="rgba(51,121,194,0.58)" stroke-width="2"></path><path d="M333.84 647.23C519.34 628.45 636.5 232.29 952.61 230.9 1268.71 229.51 1411.79 386.49 1571.37 387.7" stroke="rgba(51,121,194,0.58)" stroke-width="2"></path><path d="M146.14 666.92C342.06 659.71 502.4 346.59 861.86 346.44 1221.32 346.29 1392.79 529.76 1577.58 531.24" stroke="rgba(51,121,194,0.58)" stroke-width="2"></path><path d="M512.21 643.5C656.13 637.25 751.77 403.23 1032.24 395.31 1312.72 387.39 1415.24 223.98 1552.28 221.71" stroke="rgba(51,121,194,0.58)" stroke-width="2"></path><path d="M378.47 644.91C546.39 644.9 705.47 609.18 1049.11 607.34 1392.74 605.5 1539.69 348.8 1719.74 344.14" stroke="rgba(51,121,194,0.58)" stroke-width="2"></path></g><defs><mask id="SvgjsMask1007"><rect width="1440" height="560" fill="#ffffff"></rect></mask></defs></svg>